<svg width="746" height="158" viewBox="0 0 746 158" fill="none" xmlns="http://www.w3.org/2000/svg">
<rect width="746" height="158" rx="20" fill="black"/>
<rect x="1" y="1" width="744" height="144" rx="21" fill="white" stroke="black" stroke-width="2"/>
<path d="M68.715 43.15V68H66.3V56.38H51.565V68H49.115V43.15H51.565V54.21H66.3V43.15H68.715ZM72.8239 62.75C72.8239 61.6067 73.1506 60.6267 73.8039 59.81C74.4573 58.97 75.3556 58.3283 76.4989 57.885C77.6656 57.4183 79.0073 57.185 80.5239 57.185C81.4106 57.185 82.3323 57.255 83.2889 57.395C84.2456 57.535 85.0973 57.745 85.8439 58.025V56.485C85.8439 54.945 85.3889 53.72 84.4789 52.81C83.5689 51.9 82.3089 51.445 80.6989 51.445C79.7189 51.445 78.7506 51.6317 77.7939 52.005C76.8606 52.355 75.8806 52.88 74.8539 53.58L73.9439 51.9C75.1339 51.0833 76.3006 50.4767 77.4439 50.08C78.5873 49.66 79.7539 49.45 80.9439 49.45C83.1839 49.45 84.9573 50.0917 86.2639 51.375C87.5706 52.6583 88.2239 54.4317 88.2239 56.695V65.13C88.2239 65.4567 88.2939 65.7017 88.4339 65.865C88.5739 66.005 88.7956 66.0867 89.0989 66.11V68C88.8423 68.0233 88.6206 68.0467 88.4339 68.07C88.2473 68.0933 88.1073 68.0933 88.0139 68.07C87.4306 68.0467 86.9873 67.86 86.6839 67.51C86.3806 67.16 86.2173 66.7867 86.1939 66.39L86.1589 65.06C85.3423 66.11 84.2806 66.9267 82.9739 67.51C81.6673 68.07 80.3373 68.35 78.9839 68.35C77.8173 68.35 76.7556 68.105 75.7989 67.615C74.8656 67.1017 74.1306 66.425 73.5939 65.585C73.0806 64.7217 72.8239 63.7767 72.8239 62.75ZM85.0389 64.15C85.2956 63.8233 85.4939 63.5083 85.6339 63.205C85.7739 62.9017 85.8439 62.6333 85.8439 62.4V59.74C85.0506 59.4367 84.2223 59.2033 83.3589 59.04C82.5189 58.8767 81.6673 58.795 80.8039 58.795C79.1006 58.795 77.7239 59.1333 76.6739 59.81C75.6239 60.4867 75.0989 61.4083 75.0989 62.575C75.0989 63.2517 75.2739 63.8933 75.6239 64.5C75.9739 65.0833 76.4873 65.5733 77.1639 65.97C77.8406 66.3433 78.6339 66.53 79.5439 66.53C80.6873 66.53 81.7489 66.3083 82.7289 65.865C83.7323 65.4217 84.5023 64.85 85.0389 64.15ZM110.197 68.35C108.867 68.35 107.642 68.105 106.522 67.615C105.425 67.1017 104.457 66.4017 103.617 65.515C102.8 64.6283 102.159 63.6133 101.692 62.47C101.249 61.3267 101.027 60.1133 101.027 58.83C101.027 57.1033 101.412 55.5283 102.182 54.105C102.952 52.6817 104.025 51.55 105.402 50.71C106.779 49.87 108.365 49.45 110.162 49.45C111.865 49.45 113.37 49.8467 114.677 50.64C115.984 51.41 116.952 52.46 117.582 53.79L115.272 54.525C114.759 53.5917 114.035 52.8683 113.102 52.355C112.192 51.8183 111.177 51.55 110.057 51.55C108.844 51.55 107.735 51.865 106.732 52.495C105.729 53.125 104.924 53.9883 104.317 55.085C103.734 56.1817 103.442 57.43 103.442 58.83C103.442 60.2067 103.745 61.455 104.352 62.575C104.959 63.695 105.764 64.5933 106.767 65.27C107.77 65.9233 108.879 66.25 110.092 66.25C110.885 66.25 111.644 66.11 112.367 65.83C113.114 65.55 113.755 65.1767 114.292 64.71C114.852 64.22 115.225 63.695 115.412 63.135L117.757 63.835C117.43 64.6983 116.882 65.48 116.112 66.18C115.365 66.8567 114.479 67.3933 113.452 67.79C112.449 68.1633 111.364 68.35 110.197 68.35ZM120.026 62.75C120.026 61.6067 120.353 60.6267 121.006 59.81C121.659 58.97 122.558 58.3283 123.701 57.885C124.868 57.4183 126.209 57.185 127.726 57.185C128.613 57.185 129.534 57.255 130.491 57.395C131.448 57.535 132.299 57.745 133.046 58.025V56.485C133.046 54.945 132.591 53.72 131.681 52.81C130.771 51.9 129.511 51.445 127.901 51.445C126.921 51.445 125.953 51.6317 124.996 52.005C124.063 52.355 123.083 52.88 122.056 53.58L121.146 51.9C122.336 51.0833 123.503 50.4767 124.646 50.08C125.789 49.66 126.956 49.45 128.146 49.45C130.386 49.45 132.159 50.0917 133.466 51.375C134.773 52.6583 135.426 54.4317 135.426 56.695V65.13C135.426 65.4567 135.496 65.7017 135.636 65.865C135.776 66.005 135.998 66.0867 136.301 66.11V68C136.044 68.0233 135.823 68.0467 135.636 68.07C135.449 68.0933 135.309 68.0933 135.216 68.07C134.633 68.0467 134.189 67.86 133.886 67.51C133.583 67.16 133.419 66.7867 133.396 66.39L133.361 65.06C132.544 66.11 131.483 66.9267 130.176 67.51C128.869 68.07 127.539 68.35 126.186 68.35C125.019 68.35 123.958 68.105 123.001 67.615C122.068 67.1017 121.333 66.425 120.796 65.585C120.283 64.7217 120.026 63.7767 120.026 62.75ZM132.241 64.15C132.498 63.8233 132.696 63.5083 132.836 63.205C132.976 62.9017 133.046 62.6333 133.046 62.4V59.74C132.253 59.4367 131.424 59.2033 130.561 59.04C129.721 58.8767 128.869 58.795 128.006 58.795C126.303 58.795 124.926 59.1333 123.876 59.81C122.826 60.4867 122.301 61.4083 122.301 62.575C122.301 63.2517 122.476 63.8933 122.826 64.5C123.176 65.0833 123.689 65.5733 124.366 65.97C125.043 66.3433 125.836 66.53 126.746 66.53C127.889 66.53 128.951 66.3083 129.931 65.865C130.934 65.4217 131.704 64.85 132.241 64.15ZM140.533 68V49.765H142.983L150.228 62.33L157.508 49.765H159.853V68H157.578V53.335L150.998 64.745H149.458L142.808 53.335V68H140.533ZM172.879 68.35C171.573 68.35 170.359 68.105 169.239 67.615C168.143 67.1017 167.186 66.4133 166.369 65.55C165.576 64.6633 164.958 63.66 164.514 62.54C164.071 61.3967 163.849 60.195 163.849 58.935C163.849 57.6283 164.071 56.415 164.514 55.295C164.958 54.1517 165.588 53.1483 166.404 52.285C167.221 51.3983 168.178 50.71 169.274 50.22C170.394 49.7067 171.608 49.45 172.914 49.45C174.221 49.45 175.423 49.7067 176.519 50.22C177.616 50.71 178.573 51.3983 179.389 52.285C180.206 53.1483 180.836 54.1517 181.279 55.295C181.723 56.415 181.944 57.6283 181.944 58.935C181.944 60.195 181.723 61.3967 181.279 62.54C180.836 63.66 180.206 64.6633 179.389 65.55C178.596 66.4133 177.639 67.1017 176.519 67.615C175.423 68.105 174.209 68.35 172.879 68.35ZM166.264 58.97C166.264 60.3233 166.556 61.56 167.139 62.68C167.746 63.7767 168.551 64.6517 169.554 65.305C170.558 65.935 171.666 66.25 172.879 66.25C174.093 66.25 175.201 65.9233 176.204 65.27C177.208 64.6167 178.013 63.73 178.619 62.61C179.226 61.4667 179.529 60.23 179.529 58.9C179.529 57.5467 179.226 56.31 178.619 55.19C178.013 54.07 177.208 53.1833 176.204 52.53C175.201 51.8767 174.093 51.55 172.879 51.55C171.666 51.55 170.558 51.8883 169.554 52.565C168.574 53.2417 167.781 54.14 167.174 55.26C166.568 56.3567 166.264 57.5933 166.264 58.97ZM185.89 68V49.765H188.34L195.585 62.33L202.865 49.765H205.21V68H202.935V53.335L196.355 64.745H194.815L188.165 53.335V68H185.89ZM217.357 72.235V65.865H217.672C218.208 65.865 218.698 65.7017 219.142 65.375C219.585 65.0483 219.982 64.4767 220.332 63.66C220.682 62.8433 220.962 61.7233 221.172 60.3C221.382 58.8533 221.522 57.0333 221.592 54.84L221.767 49.765H233.632V65.865H236.082V72.235H233.947V68H219.457V72.235H217.357ZM221.277 65.865H231.252V51.9H223.902L223.797 55.05C223.727 57.22 223.575 59.04 223.342 60.51C223.132 61.9567 222.852 63.1117 222.502 63.975C222.175 64.815 221.767 65.445 221.277 65.865ZM247.564 68.35C246.258 68.35 245.044 68.105 243.924 67.615C242.804 67.1017 241.836 66.4133 241.019 65.55C240.203 64.6633 239.561 63.6483 239.094 62.505C238.651 61.3617 238.429 60.1367 238.429 58.83C238.429 57.1267 238.814 55.5633 239.584 54.14C240.378 52.7167 241.463 51.585 242.839 50.745C244.216 49.8817 245.779 49.45 247.529 49.45C249.326 49.45 250.889 49.8817 252.219 50.745C253.573 51.6083 254.634 52.7517 255.404 54.175C256.174 55.575 256.559 57.115 256.559 58.795C256.559 58.9817 256.559 59.1683 256.559 59.355C256.559 59.5183 256.548 59.6467 256.524 59.74H240.914C241.031 61.0467 241.393 62.2133 241.999 63.24C242.629 64.2433 243.434 65.0483 244.414 65.655C245.418 66.2383 246.503 66.53 247.669 66.53C248.859 66.53 249.979 66.2267 251.029 65.62C252.103 65.0133 252.849 64.22 253.269 63.24L255.334 63.8C254.961 64.6633 254.389 65.445 253.619 66.145C252.849 66.845 251.939 67.3933 250.889 67.79C249.863 68.1633 248.754 68.35 247.564 68.35ZM240.844 58.025H254.319C254.226 56.695 253.864 55.5283 253.234 54.525C252.628 53.5217 251.823 52.74 250.819 52.18C249.839 51.5967 248.754 51.305 247.564 51.305C246.374 51.305 245.289 51.5967 244.309 52.18C243.329 52.74 242.524 53.5333 241.894 54.56C241.288 55.5633 240.938 56.7183 240.844 58.025ZM258.481 68.105V65.935C259.111 65.935 259.671 65.7717 260.161 65.445C260.651 65.095 261.083 64.5117 261.456 63.695C261.853 62.8783 262.168 61.7583 262.401 60.335C262.635 58.8883 262.786 57.0567 262.856 54.84L263.066 49.765H274.896V68H272.516V51.9H265.166L265.096 55.05C265.003 57.57 264.805 59.6817 264.501 61.385C264.198 63.065 263.766 64.395 263.206 65.375C262.67 66.355 262.005 67.055 261.211 67.475C260.418 67.895 259.508 68.105 258.481 68.105ZM288.033 68.35C286.727 68.35 285.513 68.105 284.393 67.615C283.273 67.1017 282.305 66.4133 281.488 65.55C280.672 64.6633 280.03 63.6483 279.563 62.505C279.12 61.3617 278.898 60.1367 278.898 58.83C278.898 57.1267 279.283 55.5633 280.053 54.14C280.847 52.7167 281.932 51.585 283.308 50.745C284.685 49.8817 286.248 49.45 287.998 49.45C289.795 49.45 291.358 49.8817 292.688 50.745C294.042 51.6083 295.103 52.7517 295.873 54.175C296.643 55.575 297.028 57.115 297.028 58.795C297.028 58.9817 297.028 59.1683 297.028 59.355C297.028 59.5183 297.017 59.6467 296.993 59.74H281.383C281.5 61.0467 281.862 62.2133 282.468 63.24C283.098 64.2433 283.903 65.0483 284.883 65.655C285.887 66.2383 286.972 66.53 288.138 66.53C289.328 66.53 290.448 66.2267 291.498 65.62C292.572 65.0133 293.318 64.22 293.738 63.24L295.803 63.8C295.43 64.6633 294.858 65.445 294.088 66.145C293.318 66.845 292.408 67.3933 291.358 67.79C290.332 68.1633 289.223 68.35 288.033 68.35ZM281.313 58.025H294.788C294.695 56.695 294.333 55.5283 293.703 54.525C293.097 53.5217 292.292 52.74 291.288 52.18C290.308 51.5967 289.223 51.305 288.033 51.305C286.843 51.305 285.758 51.5967 284.778 52.18C283.798 52.74 282.993 53.5333 282.363 54.56C281.757 55.5633 281.407 56.7183 281.313 58.025ZM309.586 68V49.765H311.966V57.605H322.396V49.765H324.776V68H322.396V59.74H311.966V68H309.586ZM337.901 68.35C336.595 68.35 335.381 68.105 334.261 67.615C333.141 67.1017 332.173 66.4133 331.356 65.55C330.54 64.6633 329.898 63.6483 329.431 62.505C328.988 61.3617 328.766 60.1367 328.766 58.83C328.766 57.1267 329.151 55.5633 329.921 54.14C330.715 52.7167 331.8 51.585 333.176 50.745C334.553 49.8817 336.116 49.45 337.866 49.45C339.663 49.45 341.226 49.8817 342.556 50.745C343.91 51.6083 344.971 52.7517 345.741 54.175C346.511 55.575 346.896 57.115 346.896 58.795C346.896 58.9817 346.896 59.1683 346.896 59.355C346.896 59.5183 346.885 59.6467 346.861 59.74H331.251C331.368 61.0467 331.73 62.2133 332.336 63.24C332.966 64.2433 333.771 65.0483 334.751 65.655C335.755 66.2383 336.84 66.53 338.006 66.53C339.196 66.53 340.316 66.2267 341.366 65.62C342.44 65.0133 343.186 64.22 343.606 63.24L345.671 63.8C345.298 64.6633 344.726 65.445 343.956 66.145C343.186 66.845 342.276 67.3933 341.226 67.79C340.2 68.1633 339.091 68.35 337.901 68.35ZM331.181 58.025H344.656C344.563 56.695 344.201 55.5283 343.571 54.525C342.965 53.5217 342.16 52.74 341.156 52.18C340.176 51.5967 339.091 51.305 337.901 51.305C336.711 51.305 335.626 51.5967 334.646 52.18C333.666 52.74 332.861 53.5333 332.231 54.56C331.625 55.5633 331.275 56.7183 331.181 58.025ZM355.118 68V51.9H348.608V49.765H364.008V51.9H357.498V68H355.118ZM365.36 68V64.57H367.425V68H365.36ZM67.805 96.595C67.805 97.8317 67.49 98.94 66.86 99.92C66.23 100.877 65.3783 101.635 64.305 102.195C63.255 102.732 62.1 103 60.84 103H49.115V78.15H61.085C62.2517 78.15 63.255 78.465 64.095 79.095C64.9583 79.7017 65.6117 80.495 66.055 81.475C66.5217 82.4317 66.755 83.435 66.755 84.485C66.755 85.7217 66.44 86.865 65.81 87.915C65.18 88.965 64.305 89.7467 63.185 90.26C64.6083 90.68 65.7283 91.4617 66.545 92.605C67.385 93.7483 67.805 95.0783 67.805 96.595ZM65.355 96.175C65.355 95.335 65.1683 94.565 64.795 93.865C64.4217 93.1417 63.9083 92.5583 63.255 92.115C62.625 91.6717 61.9017 91.45 61.085 91.45H51.565V100.865H60.84C61.68 100.865 62.4383 100.643 63.115 100.2C63.7917 99.7567 64.3283 99.185 64.725 98.485C65.145 97.7617 65.355 96.9917 65.355 96.175ZM51.565 80.285V89.455H60.105C60.9217 89.455 61.645 89.245 62.275 88.825C62.905 88.3817 63.4067 87.81 63.78 87.11C64.1533 86.41 64.34 85.6633 64.34 84.87C64.34 84.03 64.165 83.2717 63.815 82.595C63.465 81.895 62.9867 81.335 62.38 80.915C61.7733 80.495 61.085 80.285 60.315 80.285H51.565ZM70.4655 97.75C70.4655 96.6067 70.7922 95.6267 71.4455 94.81C72.0989 93.97 72.9972 93.3283 74.1405 92.885C75.3072 92.4183 76.6489 92.185 78.1655 92.185C79.0522 92.185 79.9739 92.255 80.9305 92.395C81.8872 92.535 82.7389 92.745 83.4855 93.025V91.485C83.4855 89.945 83.0305 88.72 82.1205 87.81C81.2105 86.9 79.9505 86.445 78.3405 86.445C77.3605 86.445 76.3922 86.6317 75.4355 87.005C74.5022 87.355 73.5222 87.88 72.4955 88.58L71.5855 86.9C72.7755 86.0833 73.9422 85.4767 75.0855 85.08C76.2289 84.66 77.3955 84.45 78.5855 84.45C80.8255 84.45 82.5989 85.0917 83.9055 86.375C85.2122 87.6583 85.8655 89.4317 85.8655 91.695V100.13C85.8655 100.457 85.9355 100.702 86.0755 100.865C86.2155 101.005 86.4372 101.087 86.7405 101.11V103C86.4839 103.023 86.2622 103.047 86.0755 103.07C85.8889 103.093 85.7489 103.093 85.6555 103.07C85.0722 103.047 84.6289 102.86 84.3255 102.51C84.0222 102.16 83.8589 101.787 83.8355 101.39L83.8005 100.06C82.9839 101.11 81.9222 101.927 80.6155 102.51C79.3089 103.07 77.9789 103.35 76.6255 103.35C75.4589 103.35 74.3972 103.105 73.4405 102.615C72.5072 102.102 71.7722 101.425 71.2355 100.585C70.7222 99.7217 70.4655 98.7767 70.4655 97.75ZM82.6805 99.15C82.9372 98.8233 83.1355 98.5083 83.2755 98.205C83.4155 97.9017 83.4855 97.6333 83.4855 97.4V94.74C82.6922 94.4367 81.8639 94.2033 81.0005 94.04C80.1605 93.8767 79.3089 93.795 78.4455 93.795C76.7422 93.795 75.3655 94.1333 74.3155 94.81C73.2655 95.4867 72.7405 96.4083 72.7405 97.575C72.7405 98.2517 72.9155 98.8933 73.2655 99.5C73.6155 100.083 74.1289 100.573 74.8055 100.97C75.4822 101.343 76.2755 101.53 77.1855 101.53C78.3289 101.53 79.3905 101.308 80.3705 100.865C81.3739 100.422 82.1439 99.85 82.6805 99.15ZM89.7128 103L96.5378 93.62L90.3778 84.765H93.0728L98.5678 92.64H100.948V84.765H103.398V92.64H105.848L111.238 84.765H113.968L107.773 93.62L114.668 103H111.903L105.848 94.74H103.398V103H100.948V94.74H98.5678L92.4778 103H89.7128ZM118.59 103V84.765H120.97V92.605H131.4V84.765H133.78V103H131.4V94.74H120.97V103H118.59ZM146.905 103.35C145.599 103.35 144.385 103.105 143.265 102.615C142.145 102.102 141.177 101.413 140.36 100.55C139.544 99.6633 138.902 98.6483 138.435 97.505C137.992 96.3617 137.77 95.1367 137.77 93.83C137.77 92.1267 138.155 90.5633 138.925 89.14C139.719 87.7167 140.804 86.585 142.18 85.745C143.557 84.8817 145.12 84.45 146.87 84.45C148.667 84.45 150.23 84.8817 151.56 85.745C152.914 86.6083 153.975 87.7517 154.745 89.175C155.515 90.575 155.9 92.115 155.9 93.795C155.9 93.9817 155.9 94.1683 155.9 94.355C155.9 94.5183 155.889 94.6467 155.865 94.74H140.255C140.372 96.0467 140.734 97.2133 141.34 98.24C141.97 99.2433 142.775 100.048 143.755 100.655C144.759 101.238 145.844 101.53 147.01 101.53C148.2 101.53 149.32 101.227 150.37 100.62C151.444 100.013 152.19 99.22 152.61 98.24L154.675 98.8C154.302 99.6633 153.73 100.445 152.96 101.145C152.19 101.845 151.28 102.393 150.23 102.79C149.204 103.163 148.095 103.35 146.905 103.35ZM140.185 93.025H153.66C153.567 91.695 153.205 90.5283 152.575 89.525C151.969 88.5217 151.164 87.74 150.16 87.18C149.18 86.5967 148.095 86.305 146.905 86.305C145.715 86.305 144.63 86.5967 143.65 87.18C142.67 87.74 141.865 88.5333 141.235 89.56C140.629 90.5633 140.279 91.7183 140.185 93.025ZM167.447 103.35C166.141 103.35 164.927 103.105 163.807 102.615C162.687 102.102 161.719 101.413 160.902 100.55C160.086 99.6633 159.444 98.6483 158.977 97.505C158.534 96.3617 158.312 95.1367 158.312 93.83C158.312 92.1267 158.697 90.5633 159.467 89.14C160.261 87.7167 161.346 86.585 162.722 85.745C164.099 84.8817 165.662 84.45 167.412 84.45C169.209 84.45 170.772 84.8817 172.102 85.745C173.456 86.6083 174.517 87.7517 175.287 89.175C176.057 90.575 176.442 92.115 176.442 93.795C176.442 93.9817 176.442 94.1683 176.442 94.355C176.442 94.5183 176.431 94.6467 176.407 94.74H160.797C160.914 96.0467 161.276 97.2133 161.882 98.24C162.512 99.2433 163.317 100.048 164.297 100.655C165.301 101.238 166.386 101.53 167.552 101.53C168.742 101.53 169.862 101.227 170.912 100.62C171.986 100.013 172.732 99.22 173.152 98.24L175.217 98.8C174.844 99.6633 174.272 100.445 173.502 101.145C172.732 101.845 171.822 102.393 170.772 102.79C169.746 103.163 168.637 103.35 167.447 103.35ZM160.727 93.025H174.202C174.109 91.695 173.747 90.5283 173.117 89.525C172.511 88.5217 171.706 87.74 170.702 87.18C169.722 86.5967 168.637 86.305 167.447 86.305C166.257 86.305 165.172 86.5967 164.192 87.18C163.212 87.74 162.407 88.5333 161.777 89.56C161.171 90.5633 160.821 91.7183 160.727 93.025ZM206.395 103L194.005 89.945C193.002 88.8717 192.197 87.9617 191.59 87.215C190.983 86.445 190.552 85.7567 190.295 85.15C190.038 84.52 189.91 83.9017 189.91 83.295C189.91 82.2683 190.178 81.3467 190.715 80.53C191.275 79.7133 192.022 79.06 192.955 78.57C193.912 78.08 194.973 77.835 196.14 77.835C197.237 77.835 198.217 78.045 199.08 78.465C199.967 78.8617 200.667 79.4333 201.18 80.18C201.693 80.9033 201.95 81.755 201.95 82.735C201.95 83.785 201.647 84.73 201.04 85.57C200.457 86.3867 199.687 87.1567 198.73 87.88C197.797 88.58 196.758 89.2917 195.615 90.015C194.658 90.6683 193.772 91.3333 192.955 92.01C192.162 92.6633 191.532 93.3633 191.065 94.11C190.598 94.8567 190.365 95.7083 190.365 96.665C190.365 97.6917 190.657 98.5667 191.24 99.29C191.823 99.99 192.558 100.527 193.445 100.9C194.355 101.25 195.288 101.425 196.245 101.425C197.505 101.425 198.66 101.145 199.71 100.585C200.783 100.002 201.717 99.2083 202.51 98.205C203.303 97.1783 203.91 96.0117 204.33 94.705C204.773 93.3983 204.995 92.01 204.995 90.54H207.025C207.025 92.3133 206.745 93.9817 206.185 95.545C205.625 97.085 204.843 98.4383 203.84 99.605C202.86 100.772 201.693 101.693 200.34 102.37C199.01 103.023 197.563 103.35 196 103.35C194.553 103.35 193.223 103.07 192.01 102.51C190.797 101.927 189.828 101.133 189.105 100.13C188.405 99.1267 188.055 97.9483 188.055 96.595C188.055 95.335 188.347 94.2383 188.93 93.305C189.537 92.3483 190.307 91.4967 191.24 90.75C192.197 89.98 193.2 89.2567 194.25 88.58C195.323 87.88 196.268 87.2383 197.085 86.655C197.925 86.0483 198.578 85.4417 199.045 84.835C199.512 84.205 199.745 83.5283 199.745 82.805C199.745 81.895 199.407 81.1483 198.73 80.565C198.053 79.9817 197.19 79.69 196.14 79.69C195.37 79.69 194.682 79.8533 194.075 80.18C193.468 80.5067 192.99 80.9383 192.64 81.475C192.29 82.0117 192.115 82.595 192.115 83.225C192.115 83.6217 192.208 84.0417 192.395 84.485C192.582 84.905 192.943 85.4417 193.48 86.095C194.017 86.725 194.787 87.565 195.79 88.615L209.545 103H206.395ZM239.505 103H237.125V92.815C237.125 90.6917 236.787 89.1283 236.11 88.125C235.433 87.1217 234.43 86.62 233.1 86.62C231.723 86.62 230.487 87.11 229.39 88.09C228.317 89.07 227.558 90.33 227.115 91.87V103H224.735V92.815C224.735 90.6683 224.408 89.105 223.755 88.125C223.102 87.1217 222.098 86.62 220.745 86.62C219.392 86.62 218.167 87.0983 217.07 88.055C215.973 89.0117 215.203 90.2717 214.76 91.835V103H212.38V84.765H214.55V88.895C215.32 87.4717 216.3 86.375 217.49 85.605C218.703 84.835 220.045 84.45 221.515 84.45C223.032 84.45 224.257 84.8817 225.19 85.745C226.123 86.6083 226.695 87.74 226.905 89.14C227.745 87.6 228.748 86.4333 229.915 85.64C231.105 84.8467 232.447 84.45 233.94 84.45C234.967 84.45 235.83 84.6367 236.53 85.01C237.253 85.3833 237.825 85.92 238.245 86.62C238.688 87.2967 239.003 88.125 239.19 89.105C239.4 90.0617 239.505 91.135 239.505 92.325V103ZM243.318 93.935C243.318 92.2083 243.668 90.6333 244.368 89.21C245.091 87.7633 246.083 86.6083 247.343 85.745C248.603 84.8817 250.038 84.45 251.648 84.45C253.165 84.45 254.518 84.8583 255.708 85.675C256.921 86.4683 257.866 87.4367 258.543 88.58V77.45H260.923V100.13C260.923 100.457 260.993 100.702 261.133 100.865C261.273 101.005 261.483 101.087 261.763 101.11V103C261.296 103.07 260.935 103.093 260.678 103.07C260.188 103.047 259.756 102.848 259.383 102.475C259.01 102.102 258.823 101.693 258.823 101.25V99.465C258.1 100.655 257.12 101.6 255.883 102.3C254.646 103 253.363 103.35 252.033 103.35C250.773 103.35 249.606 103.093 248.533 102.58C247.483 102.067 246.561 101.367 245.768 100.48C244.998 99.5933 244.391 98.59 243.948 97.47C243.528 96.3267 243.318 95.1483 243.318 93.935ZM258.543 96.735V91.1C258.24 90.26 257.75 89.5017 257.073 88.825C256.396 88.125 255.626 87.5767 254.763 87.18C253.923 86.76 253.083 86.55 252.243 86.55C251.263 86.55 250.376 86.76 249.583 87.18C248.79 87.5767 248.101 88.125 247.518 88.825C246.958 89.525 246.526 90.3183 246.223 91.205C245.92 92.0917 245.768 93.0017 245.768 93.935C245.768 94.915 245.931 95.8483 246.258 96.735C246.608 97.6217 247.098 98.415 247.728 99.115C248.358 99.7917 249.081 100.317 249.898 100.69C250.715 101.063 251.601 101.25 252.558 101.25C253.165 101.25 253.795 101.133 254.448 100.9C255.101 100.667 255.72 100.352 256.303 99.955C256.91 99.535 257.411 99.045 257.808 98.485C258.205 97.925 258.45 97.3417 258.543 96.735ZM264.845 97.75C264.845 96.6067 265.172 95.6267 265.825 94.81C266.479 93.97 267.377 93.3283 268.52 92.885C269.687 92.4183 271.029 92.185 272.545 92.185C273.432 92.185 274.354 92.255 275.31 92.395C276.267 92.535 277.119 92.745 277.865 93.025V91.485C277.865 89.945 277.41 88.72 276.5 87.81C275.59 86.9 274.33 86.445 272.72 86.445C271.74 86.445 270.772 86.6317 269.815 87.005C268.882 87.355 267.902 87.88 266.875 88.58L265.965 86.9C267.155 86.0833 268.322 85.4767 269.465 85.08C270.609 84.66 271.775 84.45 272.965 84.45C275.205 84.45 276.979 85.0917 278.285 86.375C279.592 87.6583 280.245 89.4317 280.245 91.695V100.13C280.245 100.457 280.315 100.702 280.455 100.865C280.595 101.005 280.817 101.087 281.12 101.11V103C280.864 103.023 280.642 103.047 280.455 103.07C280.269 103.093 280.129 103.093 280.035 103.07C279.452 103.047 279.009 102.86 278.705 102.51C278.402 102.16 278.239 101.787 278.215 101.39L278.18 100.06C277.364 101.11 276.302 101.927 274.995 102.51C273.689 103.07 272.359 103.35 271.005 103.35C269.839 103.35 268.777 103.105 267.82 102.615C266.887 102.102 266.152 101.425 265.615 100.585C265.102 99.7217 264.845 98.7767 264.845 97.75ZM277.06 99.15C277.317 98.8233 277.515 98.5083 277.655 98.205C277.795 97.9017 277.865 97.6333 277.865 97.4V94.74C277.072 94.4367 276.244 94.2033 275.38 94.04C274.54 93.8767 273.689 93.795 272.825 93.795C271.122 93.795 269.745 94.1333 268.695 94.81C267.645 95.4867 267.12 96.4083 267.12 97.575C267.12 98.2517 267.295 98.8933 267.645 99.5C267.995 100.083 268.509 100.573 269.185 100.97C269.862 101.343 270.655 101.53 271.565 101.53C272.709 101.53 273.77 101.308 274.75 100.865C275.754 100.422 276.524 99.85 277.06 99.15ZM291.373 103.35C289.879 103.35 288.491 103.105 287.208 102.615C285.924 102.125 284.816 101.378 283.883 100.375L284.863 98.695C285.889 99.6517 286.916 100.352 287.943 100.795C288.993 101.215 290.101 101.425 291.268 101.425C292.691 101.425 293.846 101.145 294.733 100.585C295.619 100.002 296.063 99.1733 296.063 98.1C296.063 97.3767 295.841 96.8283 295.398 96.455C294.978 96.0583 294.359 95.7433 293.543 95.51C292.749 95.2533 291.793 94.985 290.673 94.705C289.413 94.355 288.351 93.9933 287.488 93.62C286.648 93.2233 286.006 92.7333 285.563 92.15C285.143 91.5433 284.933 90.7617 284.933 89.805C284.933 88.615 285.224 87.635 285.808 86.865C286.414 86.0717 287.231 85.4767 288.258 85.08C289.308 84.66 290.474 84.45 291.758 84.45C293.158 84.45 294.394 84.6717 295.468 85.115C296.541 85.5583 297.416 86.1767 298.093 86.97L296.938 88.58C296.284 87.8333 295.503 87.285 294.593 86.935C293.706 86.5617 292.714 86.375 291.618 86.375C290.871 86.375 290.159 86.48 289.483 86.69C288.806 86.8767 288.246 87.2033 287.803 87.67C287.383 88.1133 287.173 88.7317 287.173 89.525C287.173 90.1783 287.336 90.6917 287.663 91.065C287.989 91.415 288.479 91.7183 289.133 91.975C289.786 92.2083 290.591 92.465 291.548 92.745C292.924 93.1183 294.126 93.5033 295.153 93.9C296.179 94.2733 296.973 94.7633 297.533 95.37C298.093 95.9767 298.373 96.8283 298.373 97.925C298.373 99.6283 297.731 100.958 296.448 101.915C295.164 102.872 293.473 103.35 291.373 103.35ZM317.637 103H315.257V92.815C315.257 90.7617 314.895 89.2217 314.172 88.195C313.448 87.145 312.41 86.62 311.057 86.62C310.17 86.62 309.283 86.8533 308.397 87.32C307.533 87.7633 306.763 88.3817 306.087 89.175C305.433 89.945 304.967 90.8317 304.687 91.835V103H302.307V77.45H304.687V88.895C305.41 87.5417 306.413 86.4683 307.697 85.675C309.003 84.8583 310.392 84.45 311.862 84.45C312.912 84.45 313.798 84.6367 314.522 85.01C315.268 85.3833 315.863 85.9317 316.307 86.655C316.773 87.355 317.112 88.1833 317.322 89.14C317.532 90.0733 317.637 91.135 317.637 92.325V103ZM322.537 88.3V84.87H324.567V88.3H322.537ZM322.747 105.835L323.342 102.895H322.537V99.57H324.847V102.895L323.972 105.835H322.747ZM338.776 103V84.765H341.156V92.605H351.586V84.765H353.966V103H351.586V94.74H341.156V103H338.776ZM357.746 97.75C357.746 96.6067 358.072 95.6267 358.726 94.81C359.379 93.97 360.277 93.3283 361.421 92.885C362.587 92.4183 363.929 92.185 365.446 92.185C366.332 92.185 367.254 92.255 368.211 92.395C369.167 92.535 370.019 92.745 370.766 93.025V91.485C370.766 89.945 370.311 88.72 369.401 87.81C368.491 86.9 367.231 86.445 365.621 86.445C364.641 86.445 363.672 86.6317 362.716 87.005C361.782 87.355 360.802 87.88 359.776 88.58L358.866 86.9C360.056 86.0833 361.222 85.4767 362.366 85.08C363.509 84.66 364.676 84.45 365.866 84.45C368.106 84.45 369.879 85.0917 371.186 86.375C372.492 87.6583 373.146 89.4317 373.146 91.695V100.13C373.146 100.457 373.216 100.702 373.356 100.865C373.496 101.005 373.717 101.087 374.021 101.11V103C373.764 103.023 373.542 103.047 373.356 103.07C373.169 103.093 373.029 103.093 372.936 103.07C372.352 103.047 371.909 102.86 371.606 102.51C371.302 102.16 371.139 101.787 371.116 101.39L371.081 100.06C370.264 101.11 369.202 101.927 367.896 102.51C366.589 103.07 365.259 103.35 363.906 103.35C362.739 103.35 361.677 103.105 360.721 102.615C359.787 102.102 359.052 101.425 358.516 100.585C358.002 99.7217 357.746 98.7767 357.746 97.75ZM369.961 99.15C370.217 98.8233 370.416 98.5083 370.556 98.205C370.696 97.9017 370.766 97.6333 370.766 97.4V94.74C369.972 94.4367 369.144 94.2033 368.281 94.04C367.441 93.8767 366.589 93.795 365.726 93.795C364.022 93.795 362.646 94.1333 361.596 94.81C360.546 95.4867 360.021 96.4083 360.021 97.575C360.021 98.2517 360.196 98.8933 360.546 99.5C360.896 100.083 361.409 100.573 362.086 100.97C362.762 101.343 363.556 101.53 364.466 101.53C365.609 101.53 366.671 101.308 367.651 100.865C368.654 100.422 369.424 99.85 369.961 99.15ZM379.736 110.63C379.34 110.63 378.931 110.56 378.511 110.42C378.115 110.303 377.706 110.128 377.286 109.895L378.161 108.215C378.418 108.355 378.651 108.472 378.861 108.565C379.095 108.658 379.34 108.705 379.596 108.705C380.203 108.705 380.775 108.402 381.311 107.795C381.848 107.188 382.361 106.302 382.851 105.135L383.761 102.86L375.641 84.765H378.161L384.846 100.55L391.006 84.765H393.386L384.706 105.87C384.24 106.967 383.75 107.865 383.236 108.565C382.723 109.265 382.175 109.778 381.591 110.105C381.008 110.455 380.39 110.63 379.736 110.63ZM407.141 103V95.37C406.394 95.72 405.613 95.9883 404.796 96.175C403.979 96.3383 403.104 96.42 402.171 96.42C400.164 96.42 398.648 95.9067 397.621 94.88C396.618 93.8533 396.116 92.2783 396.116 90.155V84.765H398.496V89.84C398.496 91.4733 398.823 92.6633 399.476 93.41C400.153 94.1567 401.226 94.53 402.696 94.53C403.513 94.53 404.329 94.4367 405.146 94.25C405.963 94.0633 406.628 93.8183 407.141 93.515V84.765H409.521V103H407.141ZM414.723 103V84.8H417.103V99.78L428.198 84.765H430.333V103H427.953V88.265L417.033 103H414.723ZM440.089 103V86.9H433.579V84.765H448.979V86.9H442.469V103H440.089ZM452.184 103V84.765H454.564V91.205H459.289C461.365 91.205 462.929 91.7417 463.979 92.815C465.052 93.865 465.589 95.2533 465.589 96.98C465.589 98.1 465.355 99.115 464.889 100.025C464.422 100.935 463.734 101.658 462.824 102.195C461.937 102.732 460.817 103 459.464 103H452.184ZM454.564 101.11H459.149C460.105 101.11 460.875 100.923 461.459 100.55C462.042 100.153 462.474 99.6517 462.754 99.045C463.034 98.415 463.174 97.7383 463.174 97.015C463.174 96.315 463.045 95.6733 462.789 95.09C462.555 94.4833 462.135 94.005 461.529 93.655C460.945 93.2817 460.129 93.095 459.079 93.095H454.564V101.11ZM477.219 103.35C475.889 103.35 474.664 103.105 473.544 102.615C472.447 102.102 471.479 101.402 470.639 100.515C469.822 99.6283 469.18 98.6133 468.714 97.47C468.27 96.3267 468.049 95.1133 468.049 93.83C468.049 92.1033 468.434 90.5283 469.204 89.105C469.974 87.6817 471.047 86.55 472.424 85.71C473.8 84.87 475.387 84.45 477.184 84.45C478.887 84.45 480.392 84.8467 481.699 85.64C483.005 86.41 483.974 87.46 484.604 88.79L482.294 89.525C481.78 88.5917 481.057 87.8683 480.124 87.355C479.214 86.8183 478.199 86.55 477.079 86.55C475.865 86.55 474.757 86.865 473.754 87.495C472.75 88.125 471.945 88.9883 471.339 90.085C470.755 91.1817 470.464 92.43 470.464 93.83C470.464 95.2067 470.767 96.455 471.374 97.575C471.98 98.695 472.785 99.5933 473.789 100.27C474.792 100.923 475.9 101.25 477.114 101.25C477.907 101.25 478.665 101.11 479.389 100.83C480.135 100.55 480.777 100.177 481.314 99.71C481.874 99.22 482.247 98.695 482.434 98.135L484.779 98.835C484.452 99.6983 483.904 100.48 483.134 101.18C482.387 101.857 481.5 102.393 480.474 102.79C479.47 103.163 478.385 103.35 477.219 103.35ZM487.016 103L492.441 95.545C491.204 95.3583 490.201 94.8217 489.431 93.935C488.684 93.025 488.311 91.7883 488.311 90.225C488.311 89.175 488.556 88.2417 489.046 87.425C489.536 86.6083 490.224 85.955 491.111 85.465C492.021 84.975 493.083 84.73 494.296 84.73H501.261V103H498.881V95.93H494.821L489.676 103H487.016ZM494.261 94.11H498.881V86.62H494.681C493.468 86.62 492.499 86.97 491.776 87.67C491.053 88.3467 490.691 89.21 490.691 90.26C490.691 91.3333 490.983 92.2433 491.566 92.99C492.173 93.7367 493.071 94.11 494.261 94.11ZM523.187 103.35C521.88 103.35 520.667 103.105 519.547 102.615C518.45 102.102 517.494 101.413 516.677 100.55C515.884 99.6633 515.265 98.66 514.822 97.54C514.379 96.3967 514.157 95.195 514.157 93.935C514.157 92.6283 514.379 91.415 514.822 90.295C515.265 89.1517 515.895 88.1483 516.712 87.285C517.529 86.3983 518.485 85.71 519.582 85.22C520.702 84.7067 521.915 84.45 523.222 84.45C524.529 84.45 525.73 84.7067 526.827 85.22C527.924 85.71 528.88 86.3983 529.697 87.285C530.514 88.1483 531.144 89.1517 531.587 90.295C532.03 91.415 532.252 92.6283 532.252 93.935C532.252 95.195 532.03 96.3967 531.587 97.54C531.144 98.66 530.514 99.6633 529.697 100.55C528.904 101.413 527.947 102.102 526.827 102.615C525.73 103.105 524.517 103.35 523.187 103.35ZM516.572 93.97C516.572 95.3233 516.864 96.56 517.447 97.68C518.054 98.7767 518.859 99.6517 519.862 100.305C520.865 100.935 521.974 101.25 523.187 101.25C524.4 101.25 525.509 100.923 526.512 100.27C527.515 99.6167 528.32 98.73 528.927 97.61C529.534 96.4667 529.837 95.23 529.837 93.9C529.837 92.5467 529.534 91.31 528.927 90.19C528.32 89.07 527.515 88.1833 526.512 87.53C525.509 86.8767 524.4 86.55 523.187 86.55C521.974 86.55 520.865 86.8883 519.862 87.565C518.882 88.2417 518.089 89.14 517.482 90.26C516.875 91.3567 516.572 92.5933 516.572 93.97ZM536.197 103V84.765H538.577V100.9H546.382V84.765H548.797V100.9H556.567V84.765H558.947V103H536.197ZM564.122 103V84.8H566.502V99.78L577.597 84.765H579.732V103H577.352V88.265L566.432 103H564.122ZM593.303 103.35C590.363 103.35 588.135 102.452 586.618 100.655C585.125 98.835 584.378 96.3267 584.378 93.13C584.378 90.8667 584.565 88.9533 584.938 87.39C585.312 85.8267 585.86 84.5433 586.583 83.54C587.307 82.5133 588.193 81.6733 589.243 81.02C590.317 80.3667 591.542 79.83 592.918 79.41L600.583 76.89L600.793 78.955L593.408 81.37C592.008 81.8367 590.842 82.4317 589.908 83.155C588.975 83.8783 588.24 84.8 587.703 85.92C587.19 87.0167 586.852 88.4517 586.688 90.225C587.295 88.8717 588.228 87.8333 589.488 87.11C590.748 86.3633 592.207 85.99 593.863 85.99C595.637 85.99 597.142 86.3517 598.378 87.075C599.638 87.7983 600.595 88.8017 601.248 90.085C601.902 91.3683 602.228 92.85 602.228 94.53C602.228 96.3033 601.878 97.855 601.178 99.185C600.502 100.492 599.498 101.518 598.168 102.265C596.862 102.988 595.24 103.35 593.303 103.35ZM593.303 101.25C595.38 101.25 596.978 100.655 598.098 99.465C599.242 98.2517 599.813 96.6417 599.813 94.635C599.813 92.675 599.253 91.0767 598.133 89.84C597.037 88.6033 595.427 87.985 593.303 87.985C592.09 87.985 590.993 88.2417 590.013 88.755C589.033 89.2683 588.252 90.015 587.668 90.995C587.108 91.975 586.828 93.1883 586.828 94.635C586.828 95.895 587.073 97.0267 587.563 98.03C588.077 99.0333 588.812 99.8267 589.768 100.41C590.725 100.97 591.903 101.25 593.303 101.25ZM604.762 97.75C604.762 96.6067 605.089 95.6267 605.742 94.81C606.396 93.97 607.294 93.3283 608.437 92.885C609.604 92.4183 610.946 92.185 612.462 92.185C613.349 92.185 614.271 92.255 615.227 92.395C616.184 92.535 617.036 92.745 617.782 93.025V91.485C617.782 89.945 617.327 88.72 616.417 87.81C615.507 86.9 614.247 86.445 612.637 86.445C611.657 86.445 610.689 86.6317 609.732 87.005C608.799 87.355 607.819 87.88 606.792 88.58L605.882 86.9C607.072 86.0833 608.239 85.4767 609.382 85.08C610.526 84.66 611.692 84.45 612.882 84.45C615.122 84.45 616.896 85.0917 618.202 86.375C619.509 87.6583 620.162 89.4317 620.162 91.695V100.13C620.162 100.457 620.232 100.702 620.372 100.865C620.512 101.005 620.734 101.087 621.037 101.11V103C620.781 103.023 620.559 103.047 620.372 103.07C620.186 103.093 620.046 103.093 619.952 103.07C619.369 103.047 618.926 102.86 618.622 102.51C618.319 102.16 618.156 101.787 618.132 101.39L618.097 100.06C617.281 101.11 616.219 101.927 614.912 102.51C613.606 103.07 612.276 103.35 610.922 103.35C609.756 103.35 608.694 103.105 607.737 102.615C606.804 102.102 606.069 101.425 605.532 100.585C605.019 99.7217 604.762 98.7767 604.762 97.75ZM616.977 99.15C617.234 98.8233 617.432 98.5083 617.572 98.205C617.712 97.9017 617.782 97.6333 617.782 97.4V94.74C616.989 94.4367 616.161 94.2033 615.297 94.04C614.457 93.8767 613.606 93.795 612.742 93.795C611.039 93.795 609.662 94.1333 608.612 94.81C607.562 95.4867 607.037 96.4083 607.037 97.575C607.037 98.2517 607.212 98.8933 607.562 99.5C607.912 100.083 608.426 100.573 609.102 100.97C609.779 101.343 610.572 101.53 611.482 101.53C612.626 101.53 613.687 101.308 614.667 100.865C615.671 100.422 616.441 99.85 616.977 99.15ZM629.581 103V86.9H623.071V84.765H638.471V86.9H631.961V103H629.581ZM641.676 103V84.765H644.056V91.205H648.781C650.858 91.205 652.421 91.7417 653.471 92.815C654.544 93.865 655.081 95.2533 655.081 96.98C655.081 98.1 654.848 99.115 654.381 100.025C653.914 100.935 653.226 101.658 652.316 102.195C651.429 102.732 650.309 103 648.956 103H641.676ZM644.056 101.11H648.641C649.598 101.11 650.368 100.923 650.951 100.55C651.534 100.153 651.966 99.6517 652.246 99.045C652.526 98.415 652.666 97.7383 652.666 97.015C652.666 96.315 652.538 95.6733 652.281 95.09C652.048 94.4833 651.628 94.005 651.021 93.655C650.438 93.2817 649.621 93.095 648.571 93.095H644.056V101.11ZM666.711 103.35C665.381 103.35 664.156 103.105 663.036 102.615C661.939 102.102 660.971 101.402 660.131 100.515C659.314 99.6283 658.672 98.6133 658.206 97.47C657.762 96.3267 657.541 95.1133 657.541 93.83C657.541 92.1033 657.926 90.5283 658.696 89.105C659.466 87.6817 660.539 86.55 661.916 85.71C663.292 84.87 664.879 84.45 666.676 84.45C668.379 84.45 669.884 84.8467 671.191 85.64C672.497 86.41 673.466 87.46 674.096 88.79L671.786 89.525C671.272 88.5917 670.549 87.8683 669.616 87.355C668.706 86.8183 667.691 86.55 666.571 86.55C665.357 86.55 664.249 86.865 663.246 87.495C662.242 88.125 661.437 88.9883 660.831 90.085C660.247 91.1817 659.956 92.43 659.956 93.83C659.956 95.2067 660.259 96.455 660.866 97.575C661.472 98.695 662.277 99.5933 663.281 100.27C664.284 100.923 665.392 101.25 666.606 101.25C667.399 101.25 668.157 101.11 668.881 100.83C669.627 100.55 670.269 100.177 670.806 99.71C671.366 99.22 671.739 98.695 671.926 98.135L674.271 98.835C673.944 99.6983 673.396 100.48 672.626 101.18C671.879 101.857 670.992 102.393 669.966 102.79C668.962 103.163 667.877 103.35 666.711 103.35ZM676.508 103L681.933 95.545C680.696 95.3583 679.693 94.8217 678.923 93.935C678.176 93.025 677.803 91.7883 677.803 90.225C677.803 89.175 678.048 88.2417 678.538 87.425C679.028 86.6083 679.716 85.955 680.603 85.465C681.513 84.975 682.575 84.73 683.788 84.73H690.753V103H688.373V95.93H684.313L679.168 103H676.508ZM683.753 94.11H688.373V86.62H684.173C682.96 86.62 681.991 86.97 681.268 87.67C680.545 88.3467 680.183 89.21 680.183 90.26C680.183 91.3333 680.475 92.2433 681.058 92.99C681.665 93.7367 682.563 94.11 683.753 94.11ZM695.638 103V99.57H697.703V103H695.638Z" fill="black"/>
</svg>
